<?xml version="1.0" encoding="utf-8"?><svg viewBox="0 0 70 70" xmlns="http://www.w3.org/2000/svg" xmlns:xlink="http://www.w3.org/1999/xlink"><style>:root>svg{display:none}:root>svg:target{display:block}</style><svg fill="none" viewBox="0 0 53 70" id="1" xmlns="http://www.w3.org/2000/svg"><path d="M5.629 25.977c0 11.308 9.2 20.507 20.508 20.507s20.508-9.2 20.508-20.507c0-11.309-9.2-20.508-20.508-20.508-11.309 0-20.508 9.2-20.508 20.508zM26.137 8.203c9.8 0 17.773 7.973 17.773 17.774 0 9.8-7.973 17.773-17.773 17.773S8.363 35.777 8.363 25.977 16.336 8.203 26.137 8.203z" fill="#fff"/><path d="M13.475 23.54l5.3 5.22-1.22 7.34a1.367 1.367 0 001.98 1.437l6.602-3.429 6.602 3.429a1.367 1.367 0 001.978-1.438l-1.219-7.338 5.3-5.222a1.366 1.366 0 00-.757-2.326l-7.354-1.107-3.328-6.655a1.367 1.367 0 00-2.445 0l-3.328 6.655-7.354 1.107a1.367 1.367 0 00-.757 2.326zm9.22-.836c.44-.066.82-.342 1.02-.74l2.422-4.844 2.422 4.844c.199.398.58.674 1.02.74l5.352.806-3.857 3.8a1.37 1.37 0 00-.39 1.199l.888 5.34-4.806-2.494a1.364 1.364 0 00-1.26 0l-4.805 2.495.888-5.341a1.366 1.366 0 00-.39-1.199l-3.857-3.8 5.353-.806zM27.504 1.367a1.367 1.367 0 11-2.734 0 1.367 1.367 0 012.734 0z" fill="#fff"/><path d="M19.693.806C8.193 3.742.16 14.092.16 25.976A25.896 25.896 0 008.711 45.24L.475 59.755a1.368 1.368 0 001.467 2.013l9.354-1.942 3.287 9.264a1.367 1.367 0 002.477.219l9.077-15.958 9.076 15.958a1.367 1.367 0 002.477-.219l3.287-9.264 9.354 1.942a1.368 1.368 0 001.467-2.013l-8.237-14.516a25.896 25.896 0 008.552-19.262c0-11.885-8.032-22.235-19.533-25.17a1.367 1.367 0 10-.676 2.649c10.289 2.626 17.475 11.887 17.475 22.52 0 12.943-10.51 23.243-23.242 23.243-12.74 0-23.243-10.309-23.243-23.242 0-10.634 7.186-19.895 17.475-22.521a1.368 1.368 0 00-.676-2.65zM16.161 65.36l-2.687-7.571a1.367 1.367 0 00-1.566-.882l-7.564 1.571 6.519-11.489a26.032 26.032 0 0012.981 4.864l-7.683 13.507zm24.204-8.453a1.368 1.368 0 00-1.566.882l-2.687 7.571-7.683-13.507c4.68-.417 9.18-2.1 12.982-4.864l6.518 11.489-7.564-1.57z" fill="#fff"/></svg><svg fill="none" viewBox="0 0 50 50" id="2" xmlns="http://www.w3.org/2000/svg"><path d="M48.715 36.878l-6.216-6.215a4.4 4.4 0 00-6.216 0l-2.825 2.825a3.334 3.334 0 01-4.708 0L16.503 21.232a3.328 3.328 0 010-4.71c.456-.454 1.762-1.76 2.826-2.824a4.393 4.393 0 00-.002-6.218l-6.214-6.194a4.399 4.399 0 00-6.211-.005L4.637 3.526c-6.18 6.18-6.18 16.235 0 22.415L24.04 45.353c6.194 6.194 16.22 6.195 22.415 0l2.26-2.26a4.4 4.4 0 000-6.216zM8.969 3.358a1.467 1.467 0 012.074.001l6.214 6.195c.572.572.572 1.499 0 2.072l-1.036 1.036-8.282-8.283 1.03-1.021zm17.144 39.925L6.709 23.869A12.88 12.88 0 015.9 6.485l8.258 8.258a6.254 6.254 0 00.272 8.56L26.677 35.56a6.254 6.254 0 008.56.273l8.259 8.259a12.856 12.856 0 01-17.383-.808zm20.53-2.261l-1.036 1.036-8.288-8.288 1.036-1.036a1.467 1.467 0 012.072 0l6.216 6.216c.571.571.571 1.5 0 2.072z" fill="#fff"/></svg><svg fill="none" viewBox="0 0 48 48" id="Compass" xmlns="http://www.w3.org/2000/svg"><path d="M41.969 5.25a5.469 5.469 0 00-5.407 4.688h-9.437V11.5H36.5v30.469a.781.781 0 001.563 0 3.906 3.906 0 117.812 0v.164a3.75 3.75 0 01-3.742 3.742H2.125V29.716a21.171 21.171 0 0018.75 11.471.781.781 0 100-1.562 19.407 19.407 0 01-8.46-1.96l.485-1.809a2.285 2.285 0 002.073-1.718l2.572-9.591c.584.108 1.174.179 1.767.212v.803a.781.781 0 101.563 0v-.803a13.992 13.992 0 001.767-.21l2.571 9.586a2.281 2.281 0 002.075 1.719l.645 2.41a.782.782 0 101.51-.404l-.645-2.404a2.35 2.35 0 00.937-2.526L24.61 13.8a5.454 5.454 0 00-1.39-7.563v-2.55a3.125 3.125 0 00-6.25 0v2.55a5.454 5.454 0 00-1.39 7.562l-5.131 19.135a2.344 2.344 0 00.942 2.522L11 36.909A19.508 19.508 0 012.124 25.54V11.5h10.938V9.937H.563v37.5h41.57a5.312 5.312 0 005.304-5.307V10.719A5.475 5.475 0 0041.97 5.25zM20.875 23.172v-.735a.781.781 0 10-1.563 0v.735c-.454-.027-.906-.08-1.355-.156l1.834-6.843c.101.006.2.016.303.016.102 0 .201-.01.302-.016l1.834 6.843c-.448.077-.9.129-1.355.156zm7.354 10.16a.788.788 0 01-.547.957h-.005a.781.781 0 01-.817-.28.768.768 0 01-.131-.273L21.93 15.863c.506-.18.981-.435 1.412-.755l4.887 18.224zM18.53 3.687a1.563 1.563 0 013.125 0v1.797a5.412 5.412 0 00-3.125 0V3.688zm1.563 3.126a3.906 3.906 0 110 7.811 3.906 3.906 0 010-7.812zm-8.136 26.522l4.887-18.227c.431.32.907.574 1.412.755L13.463 33.74a.781.781 0 01-.945.553h-.007a.788.788 0 01-.553-.958zm33.917 4.81a5.462 5.462 0 00-7.813 0V10.719a3.906 3.906 0 117.813 0v27.425z" fill="#fff"/><path d="M20.094 13.063a2.344 2.344 0 100-4.69 2.344 2.344 0 000 4.69zm0-3.126a.781.781 0 110 1.563.781.781 0 010-1.563z" fill="#fff"/></svg><svg fill="none" viewBox="0 0 70 56" id="Group" xmlns="http://www.w3.org/2000/svg"><path d="M68.542 50.123c0 2.433-1.91 4.411-4.273 4.411h-39.58c-2.362 0-4.272-1.978-4.272-4.411V25.237c0-2.432 1.91-4.411 4.273-4.411h39.593c2.363 0 4.273 1.979 4.273 4.411v24.886h-.014z" stroke="#fff" stroke-width="2" stroke-miterlimit="10"/><path d="M17.5 46.342l-1.604.586c-2.275.835-4.871-.293-5.702-2.58L1.706 20.944c-.831-2.286.438-4.866 2.713-5.686L41.417 1.729c2.275-.835 4.68.396 5.512 2.682l4.886 13.498M68.542 28.154H20.417M68.542 35.482H20.417M24.792 41.344H35" stroke="#fff" stroke-width="2" stroke-miterlimit="10"/></svg><svg fill="none" viewBox="0 0 12 9" id="arrow" xmlns="http://www.w3.org/2000/svg"><path d="M6.468 7.834l5.34-5.34A.652.652 0 0012 2.028a.652.652 0 00-.192-.464l-.393-.393a.657.657 0 00-.928 0L6.002 5.656l-4.489-4.49a.652.652 0 00-.464-.19.653.653 0 00-.464.19l-.393.394A.652.652 0 000 2.024c0 .176.068.34.192.464l5.345 5.346c.124.123.29.191.465.191a.652.652 0 00.466-.191z" fill="#fff"/></svg><svg fill="none" viewBox="0 0 70 70" id="industrial-robot" xmlns="http://www.w3.org/2000/svg"><path d="M12.42 32.742H10.16V35h2.258v-2.258zM10.161 29.355H7.903v2.258h2.258v-2.258zM20.323 35h-2.258v2.258h2.258V35zM24.839 32.742H22.58V35h2.258v-2.258zM55.322 65.484a6.781 6.781 0 006.775-6.774 6.781 6.781 0 00-6.775-6.775 6.781 6.781 0 00-6.774 6.775 6.781 6.781 0 006.774 6.774zm-4.334-7.972l1.815 1.048 1.129-1.956-1.827-1.056a4.504 4.504 0 012.089-1.194v2.098h2.258v-2.098a4.51 4.51 0 012.088 1.194l-1.825 1.055 1.129 1.956 1.814-1.048c.105.385.18.781.18 1.199 0 .417-.075.814-.181 1.198l-1.814-1.048-1.13 1.955 1.827 1.056a4.509 4.509 0 01-2.088 1.194v-2.097h-2.258v2.097a4.509 4.509 0 01-2.09-1.194l1.826-1.055-1.129-1.955-1.814 1.048a4.529 4.529 0 01-.18-1.2c0-.417.075-.813.181-1.197z" fill="#fff"/><path d="M67.742 67.742V47.419h-2.258v-6.774h-3.387V27.76a7.84 7.84 0 001.129-4.05c0-2.803-1.472-5.264-3.679-6.667L49.342 5.637C48.365 2.381 45.344 0 41.774 0c-2.773 0-5.212 1.44-6.624 3.607l-13.147 12.49a5.908 5.908 0 00-1.853 4.237 5.908 5.908 0 00.938 3.272l-6.08 6.08 1.597 1.596 6.044-6.045a5.906 5.906 0 003.452 1.13 5.936 5.936 0 004.037-1.584l9.931-9.167c.34.075.688.127 1.044.157l6.347 7.14a7.85 7.85 0 001.088 4.847v12.885h-3.387v6.774h-2.258v20.323H22.581V47.419h-2.258v-2.258h2.258v-2.258h-2.372a5.655 5.655 0 00-5.532-4.516H4.517v4.516H2.257v2.258h2.258v2.258H2.258v20.323H0V70H70v-2.258h-2.258zM6.774 40.645h7.903c1.47 0 2.712.947 3.18 2.258H6.774v-2.258zm0 4.516h11.29v2.258H6.774v-2.258zm13.549 11.29h-2.259v2.259h2.259v9.032H4.516V58.71h11.29v-2.258H4.517v-6.775h15.807v6.775zM60.968 23.71a5.652 5.652 0 01-5.645 5.645 5.652 5.652 0 01-5.646-5.645 5.652 5.652 0 015.646-5.646 5.652 5.652 0 015.645 5.646zm-1.13 6.476v10.46h-9.032v-10.46a7.853 7.853 0 009.033 0zm-31.23-7.062a3.682 3.682 0 01-5.117-.102 3.664 3.664 0 01-1.082-2.659 3.666 3.666 0 011.15-2.63l10.314-9.8c.012 2.873 1.566 5.382 3.873 6.756l-9.139 8.435zm13.158-9.576a5.653 5.653 0 01-5.637-5.645 5.652 5.652 0 015.645-5.645 5.652 5.652 0 015.645 5.645c0 3.11-2.53 5.642-5.64 5.645h-.013zm6.421 6.787l-4.29-4.827a7.918 7.918 0 005.655-6.25l5.863 6.553c-.03 0-.06-.005-.092-.005-3.15 0-5.867 1.857-7.136 4.529zm-.768 22.568h15.807v4.516H47.419v-4.516zm18.065 24.839H45.16V49.677h20.323v18.065z" fill="#fff"/></svg><svg fill="none" viewBox="0 0 70 70" id="like" xmlns="http://www.w3.org/2000/svg"><path d="M47.305 0c-.755 0-1.367.612-1.367 1.367v6.29a1.367 1.367 0 002.734 0v-6.29C48.672.612 48.06 0 47.305 0zM15.86 42.656a1.368 1.368 0 100 2.736 1.368 1.368 0 000-2.736z" fill="#fff"/><path d="M66.445 39.922a5.475 5.475 0 00-5.468-5.469H50.77c1.58-4.047 2.22-8.811 2.096-13.052-.023-.809-.054-1.277-.096-1.571a5.476 5.476 0 00-5.465-5.338 5.475 5.475 0 00-5.47 5.469v1.367c0 8.647-11.102 13.505-19.482 15.589a4.107 4.107 0 00-3.76-2.464H4.923c-.755 0-1.367.612-1.367 1.367v32.813c0 .755.612 1.367 1.367 1.367h13.672a4.106 4.106 0 003.746-2.435c.694.178 1.338.346 1.933.502C29.046 69.313 31.675 70 38.07 70h14.702a5.475 5.475 0 005.47-5.469c0-1.124-.342-2.17-.926-3.04a5.47 5.47 0 003.66-5.163c0-1.12-.333-2.17-.916-3.044a5.47 5.47 0 002.724-8.2 5.47 5.47 0 003.66-5.162zM19.961 65.898c0 .754-.613 1.368-1.367 1.368H6.289V37.187h12.305c.754 0 1.367.614 1.367 1.368v27.343zm41.016-23.242H54.14a1.367 1.367 0 000 2.735h4.101a2.734 2.734 0 110 5.469h-6.836a1.367 1.367 0 000 2.734h4.102c1.49 0 2.734 1.19 2.734 2.734a2.734 2.734 0 01-2.734 2.734h-6.836a1.367 1.367 0 000 2.735h4.101a2.737 2.737 0 012.735 2.734 2.737 2.737 0 01-2.735 2.735H38.071c-6.044 0-8.405-.617-13.107-1.845-.69-.18-1.445-.377-2.269-.587V39.652c9.894-2.357 21.875-8.11 21.875-18.324v-1.367a2.737 2.737 0 012.735-2.734 2.739 2.739 0 012.734 2.73v.004c0 .594.742 7.886-2.232 14.492h-4.604a1.367 1.367 0 000 2.734h17.774a2.734 2.734 0 110 5.469z" fill="#fff"/><path d="M15.86 48.125c-.756 0-1.368.612-1.368 1.367V60.43a1.367 1.367 0 002.735 0V49.492c0-.755-.613-1.367-1.368-1.367zM36.367 17.227h-5.469a1.367 1.367 0 000 2.734h5.47a1.367 1.367 0 000-2.734zM63.71 17.227h-5.468a1.367 1.367 0 000 2.734h5.469a1.367 1.367 0 000-2.734zM59.872 6.026a1.368 1.368 0 00-1.934 0l-3.866 3.867a1.367 1.367 0 001.934 1.933l3.866-3.866c.534-.534.534-1.4 0-1.934zM40.537 9.893l-3.866-3.867a1.368 1.368 0 00-1.934 1.934l3.866 3.866a1.368 1.368 0 001.934-1.933z" fill="#fff"/></svg><svg fill="none" viewBox="0 0 23 23" id="location" xmlns="http://www.w3.org/2000/svg"><g clip-path="url(#hclip0_7:26)"><path fill-rule="evenodd" clip-rule="evenodd" d="M11.5 1.958a7.625 7.625 0 00-7.625 7.625c0 2.953 1.922 5.823 4.038 8.057a28.153 28.153 0 003.587 3.174 28.141 28.141 0 003.586-3.173c2.117-2.234 4.039-5.105 4.039-8.058A7.625 7.625 0 0011.5 1.958zm0 20.084l-.555.831h-.001l-.002-.001-.007-.005-.022-.015a12.91 12.91 0 01-.37-.26 30.147 30.147 0 01-4.082-3.576c-2.195-2.318-4.586-5.676-4.586-9.433a9.625 9.625 0 0119.25 0c0 3.757-2.39 7.115-4.587 9.433a30.155 30.155 0 01-4.082 3.576 17.464 17.464 0 01-.37.26l-.021.015-.007.005-.002.001-.556-.831zm0 0l.555.832a1 1 0 01-1.11 0l.555-.832z" fill="#fff"/><path d="M11.5 12.459a2.875 2.875 0 100-5.75 2.875 2.875 0 000 5.75z" stroke="#fff" stroke-width="2" stroke-linecap="round" stroke-linejoin="round"/></g><defs><clipPath id="hclip0_7:26"><path fill="#fff" d="M0 0h23v23H0z"/></clipPath></defs></svg><svg fill="none" viewBox="0 0 70 70" id="rocket" xmlns="http://www.w3.org/2000/svg"><g clip-path="url(#iclip0_45:360)" fill="#fff"><path d="M36.731 33.27a1.367 1.367 0 10-1.935 1.933 1.367 1.367 0 001.935-1.932zM54.131 15.869a6.833 6.833 0 00-9.667 0c-2.665 2.664-2.665 7 0 9.668 2.666 2.663 7.002 2.665 9.667 0a6.833 6.833 0 000-9.668zm-1.933 7.734a4.107 4.107 0 01-5.8 0 4.107 4.107 0 010-5.8 4.1 4.1 0 015.8 0 4.1 4.1 0 010 5.8z"/><path d="M69.6.4a1.362 1.362 0 00-1.016-.4c-.31.012-7.67.308-16.42 3.4-7.01 2.476-12.854 6.02-17.368 10.534a52.039 52.039 0 00-2.938 3.199c-4.464-2.628-8.04-1.804-10.302-.594-5.206 2.787-8.429 10.352-8.429 15.764a1.368 1.368 0 002.335.966c2.745-2.745 6.132-2.574 7.239-2.428l.478.479a48.082 48.082 0 00-2.258 6.64 3.87 3.87 0 00.166 2.375c-1.317.606-2.587 1.497-3.692 2.603-3.52 3.52-4.234 12.096-4.263 12.46a1.367 1.367 0 001.47 1.47c.364-.029 8.941-.743 12.46-4.263 1.106-1.105 1.996-2.375 2.603-3.69a3.861 3.861 0 002.376.164 48.1 48.1 0 006.64-2.258l.478.479c.145 1.106.317 4.493-2.428 7.238a1.367 1.367 0 00.966 2.334c5.412 0 12.977-3.222 15.763-8.429 1.21-2.26 2.034-5.838-.593-10.301a52.043 52.043 0 003.199-2.938c4.514-4.515 8.058-10.358 10.533-17.369 3.093-8.75 3.389-16.11 3.4-16.419a1.368 1.368 0 00-.4-1.016zM16.183 29.362c.85-4.11 3.316-8.62 6.663-10.412 2.237-1.197 4.681-1.08 7.28.344a55.273 55.273 0 00-5.743 9.363c-.02-.013-.267-.322-.724-.425-.188-.043-3.806-.82-7.476 1.13zm8.945 21.31c-1.88 1.88-6.29 2.871-9.077 3.276.405-2.787 1.396-7.197 3.276-9.077 1.053-1.053 2.274-1.85 3.5-2.3l4.601 4.6c-.45 1.227-1.247 2.448-2.3 3.5zm6.233-4.242c-.396.101-.854-.047-1.195-.388l-2.678-2.677-3.53-3.531c-.341-.342-.49-.8-.39-1.195a44.393 44.393 0 011.708-5.222l11.306 11.306a44.355 44.355 0 01-5.221 1.707zm19.688.723c-1.791 3.347-6.301 5.814-10.411 6.663 1.31-2.466 1.599-5.605 1.12-7.509-.111-.442-.4-.665-.416-.69a55.3 55.3 0 009.364-5.745c1.422 2.6 1.54 5.045.343 7.28zm3.082-13.883a49.597 49.597 0 01-3.943 3.537 52.527 52.527 0 01-10.899 6.757L26.436 30.71a52.514 52.514 0 016.756-10.899 49.622 49.622 0 013.538-3.943c4.05-4.05 9.277-7.274 15.54-9.595L63.728 17.73c-2.32 6.264-5.544 11.49-9.595 15.541zM64.71 14.846L55.154 5.29c5.207-1.617 9.736-2.223 11.997-2.44-.218 2.26-.824 6.79-2.44 11.996z"/><path d="M32.863 56.472a1.367 1.367 0 00-1.933 0l-3.867 3.868a1.367 1.367 0 001.934 1.933l3.867-3.868c.533-.534.533-1.4 0-1.933zM13.529 37.137a1.367 1.367 0 00-1.934 0l-3.867 3.866a1.367 1.367 0 001.933 1.934l3.867-3.866c.534-.534.535-1.4 0-1.934zM23.196 58.406a1.367 1.367 0 00-1.934 0l-9.26 9.26a1.367 1.367 0 101.933 1.934l9.26-9.26c.535-.534.535-1.4.001-1.934zM12.258 58.406a1.367 1.367 0 00-1.933 0l-9.261 9.26A1.367 1.367 0 102.997 69.6l9.261-9.26c.534-.534.534-1.4 0-1.934zM11.594 46.804a1.367 1.367 0 00-1.933 0L.4 56.065A1.367 1.367 0 002.334 58l9.26-9.262c.534-.534.534-1.4 0-1.933zM42.53 27.47a1.367 1.367 0 00-1.933 0l-1.933 1.933a1.367 1.367 0 001.934 1.933l1.933-1.933c.534-.534.534-1.4 0-1.934z"/></g><defs><clipPath id="iclip0_45:360"><path fill="#fff" d="M0 0h70v70H0z"/></clipPath></defs></svg><svg fill="none" viewBox="0 0 70 70" id="stopwatch" xmlns="http://www.w3.org/2000/svg"><path d="M39.666 65.328c14.174 0 25.665-11.49 25.665-25.664 0-14.175-11.49-25.665-25.665-25.665-14.174 0-25.664 11.49-25.664 25.665.015 14.167 11.496 25.648 25.664 25.664zm-19.832-26.83h-3.44C17.002 26.548 26.552 17 38.5 16.391v3.44a1.167 1.167 0 002.333 0v-3.44C52.78 17 62.33 26.549 62.938 38.497h-4.607a1.167 1.167 0 100 2.333h4.607c-.608 11.948-10.157 21.498-22.105 22.106v-3.44a1.167 1.167 0 10-2.333 0v3.44c-11.948-.608-21.498-10.158-22.106-22.106h3.44a1.167 1.167 0 000-2.333z" fill="#fff"/><path d="M65.932 24.518a30.257 30.257 0 00-1.105-1.77l2.88-2.88a1.167 1.167 0 000-1.65l-6.591-6.59a1.167 1.167 0 00-1.65 0l-2.885 2.875a30.15 30.15 0 00-15.748-5.141V2.333h8.166a1.167 1.167 0 000-2.333H30.333a1.167 1.167 0 000 2.333H38.5v7.04a30.296 30.296 0 00-25.082 15.125H7.002a1.167 1.167 0 000 2.333h7c.03 0 .055-.015.086-.017.42.005.81-.218 1.018-.584 7.422-13.564 24.436-18.544 38-11.122 13.566 7.422 18.546 24.436 11.123 38-7.422 13.566-24.435 18.545-38 11.123A27.998 27.998 0 0115.106 53.11a1.155 1.155 0 00-1.016-.59c-.03 0-.057-.017-.089-.017h-7a1.167 1.167 0 000 2.333h6.417c8.372 14.501 26.914 19.47 41.415 11.098 14.501-8.371 19.47-26.914 11.099-41.415zm-7.444-8.613l1.803-1.803 4.942 4.941-1.806 1.806a30.655 30.655 0 00-4.94-4.944z" fill="#fff"/><path d="M11.668 39.664c0-.645-.522-1.167-1.166-1.167H1.169a1.167 1.167 0 000 2.333h9.333c.644 0 1.166-.522 1.166-1.166zM3.502 33.83h8.166a1.167 1.167 0 000-2.332H3.502a1.167 1.167 0 000 2.333zM12.835 46.663c0-.644-.523-1.166-1.167-1.166H3.502a1.167 1.167 0 000 2.333h8.166c.645 0 1.167-.523 1.167-1.167zM36.508 47.488a1.167 1.167 0 001.65 0l16.215-16.215a1.166 1.166 0 00-1.65-1.65l-15.39 15.39-6.941-6.94a1.167 1.167 0 00-1.65 1.65l7.766 7.765z" fill="#fff"/></svg><svg fill="none" viewBox="0 0 23 23" id="whatsapp" xmlns="http://www.w3.org/2000/svg"><path fill-rule="evenodd" clip-rule="evenodd" d="M19.127 3.841A10.615 10.615 0 0011.569.708C5.679.708.886 5.5.884 11.392c0 1.883.491 3.721 1.426 5.341L.794 22.27l5.665-1.486c1.56.852 3.317 1.3 5.106 1.3h.004c5.889 0 10.682-4.793 10.685-10.684a10.62 10.62 0 00-3.127-7.559zm-7.558 16.44h-.004a8.871 8.871 0 01-4.52-1.239l-.324-.192-3.361.882.897-3.278-.211-.336a8.858 8.858 0 01-1.358-4.726c.002-4.896 3.986-8.88 8.884-8.88a8.82 8.82 0 016.279 2.604A8.828 8.828 0 0120.45 11.4c-.002 4.897-3.986 8.881-8.881 8.881zm4.871-6.652c-.267-.134-1.58-.78-1.824-.869-.245-.089-.423-.133-.6.134-.179.267-.69.869-.846 1.047-.156.178-.312.2-.579.067-.267-.134-1.127-.416-2.147-1.326-.793-.707-1.329-1.582-1.485-1.849-.155-.267-.001-.398.117-.545.29-.359.579-.735.668-.913.089-.178.044-.334-.023-.468-.066-.133-.6-1.447-.823-1.982-.216-.52-.436-.45-.6-.458-.156-.008-.334-.01-.512-.01a.98.98 0 00-.712.334c-.245.268-.934.914-.934 2.228s.956 2.583 1.09 2.761c.133.179 1.882 2.875 4.56 4.032.638.275 1.135.439 1.523.562.64.203 1.221.175 1.681.106.513-.077 1.58-.646 1.802-1.27.223-.623.223-1.158.156-1.27-.067-.11-.245-.177-.512-.311z" fill="#fff"/></svg></svg>