<svg width="23" height="23" fill="none" xmlns="http://www.w3.org/2000/svg"><g clip-path="url(#clip0_7:26)"><path fill-rule="evenodd" clip-rule="evenodd" d="M11.5 1.958a7.625 7.625 0 00-7.625 7.625c0 2.953 1.922 5.823 4.038 8.057a28.153 28.153 0 003.587 3.174 28.141 28.141 0 003.586-3.173c2.117-2.234 4.039-5.105 4.039-8.058A7.625 7.625 0 0011.5 1.958zm0 20.084l-.555.831h-.001l-.002-.001-.007-.005-.022-.015a12.91 12.91 0 01-.37-.26 30.147 30.147 0 01-4.082-3.576c-2.195-2.318-4.586-5.676-4.586-9.433a9.625 9.625 0 0119.25 0c0 3.757-2.39 7.115-4.587 9.433a30.155 30.155 0 01-4.082 3.576 17.464 17.464 0 01-.37.26l-.021.015-.007.005-.002.001-.556-.831zm0 0l.555.832a1 1 0 01-1.11 0l.555-.832z" fill="#fff"/><path d="M11.5 12.459a2.875 2.875 0 100-5.75 2.875 2.875 0 000 5.75z" stroke="#fff" stroke-width="2" stroke-linecap="round" stroke-linejoin="round"/></g><defs><clipPath id="clip0_7:26"><path fill="#fff" d="M0 0h23v23H0z"/></clipPath></defs></svg>